# xmcd
#
# Track frame offsets: 
#        150
#        14998
#        26831
#        43519
#        58131
#        71057
#        84418
#        102637
#        111440
#        124357
#        134194
#        149358
#        163302
#        180660
#        188993
#        198936
#
# Disc length: 2815 seconds
#
# Revision: 1
# Processed by: cddbd v1.5.2PL0 Copyright (c) Steve Scherf et al.
# Submitted via: ExactAudioCopy v1.3
#
DISCID=060afd10
DTITLE=Frank Sinatra - Frank Sinatra ‎– The Platinum Collection [CD 1)
DYEAR=2004
DGENRE=Swing
TTITLE0=Come Fly With Me
TTITLE1=Love And Marriage
TTITLE2=I've Got You Under My Skin
TTITLE3=Just One Of Those Things
TTITLE4=Witchcraft
TTITLE5=(Love Is) The Tender Trap
TTITLE6=That Old Black Magic
TTITLE7=They Can't Take That Away From Me
TTITLE8=All The Way
TTITLE9=I've Got The World On A String
TTITLE10=Fools Rush In
TTITLE11=Three Coins In The Fountain
TTITLE12=It's Nice To Go Trav'Ling
TTITLE13=I Love Paris
TTITLE14=Chicago
TTITLE15=High Hopes
EXTD=
EXTT0=
EXTT1=
EXTT2=
EXTT3=
EXTT4=
EXTT5=
EXTT6=
EXTT7=
EXTT8=
EXTT9=
EXTT10=
EXTT11=
EXTT12=
EXTT13=
EXTT14=
EXTT15=
PLAYORDER=
